<?xml version="1.0" encoding="iso-8859-1"?>
<!-- Generator: Adobe Illustrator 19.0.0, SVG Export Plug-In . SVG Version: 6.00 Build 0)  -->
<svg version="1.1" id="Layer_1" xmlns="http://www.w3.org/2000/svg" xmlns:xlink="http://www.w3.org/1999/xlink" x="0px" y="0px"
	 viewBox="0 0 512 512" style="enable-background:new 0 0 512 512;" xml:space="preserve">
<g>
	<g>
		<g>
			<path d="M501.657,351.677H468.04V123.863c0-22.671-18.444-41.115-41.115-41.115H85.075c-22.671,0-41.115,18.444-41.115,41.115
				v227.814H10.343C4.631,351.677,0,356.308,0,362.02v14.825c0,28.897,23.51,52.407,52.407,52.407h407.187
				c28.896,0,52.406-23.51,52.406-52.407V362.02C512,356.308,507.369,351.677,501.657,351.677z M64.646,123.863
				c0-11.264,9.164-20.428,20.428-20.428h341.851c11.264,0,20.428,9.164,20.428,20.428v227.814H64.646V123.863z M491.313,376.845
				c0,17.491-14.229,31.72-31.72,31.72H52.407c-17.491,0-31.72-14.229-31.72-31.72v-4.482h470.626V376.845z"/>
			<path d="M372.192,144.808h44.131c5.713,0,10.343-4.631,10.343-10.343c0-5.713-4.631-10.343-10.343-10.343h-44.131
				c-5.713,0-10.343,4.631-10.343,10.343S366.479,144.808,372.192,144.808z"/>
			<path d="M147.308,144.808h180.407c5.713,0,10.343-4.631,10.343-10.343c0-5.713-4.631-10.343-10.343-10.343H147.308
				c-5.713,0-10.343,4.631-10.343,10.343S141.595,144.808,147.308,144.808z"/>
			<path d="M95.677,144.808h0.431c5.713,0,10.343-4.631,10.343-10.343c0-5.713-4.631-10.343-10.343-10.343h-0.431
				c-5.713,0-10.343,4.631-10.343,10.343S89.964,144.808,95.677,144.808z"/>
			<path d="M178.144,202.884c-5.426-1.78-11.271,1.175-13.052,6.603l-10.026,30.556l-10.025-30.556
				c-1.393-4.247-5.358-7.119-9.827-7.119s-8.434,2.871-9.827,7.118l-10.026,30.556l-10.026-30.556
				c-1.78-5.428-7.625-8.383-13.052-6.603c-5.428,1.781-8.384,7.625-6.603,13.052l19.853,60.509
				c1.393,4.247,5.358,7.118,9.827,7.118c4.469,0,8.434-2.871,9.827-7.118l10.026-30.556l10.025,30.556
				c1.393,4.247,5.358,7.119,9.827,7.119s8.434-2.871,9.827-7.118l19.853-60.509C186.527,210.51,183.572,204.666,178.144,202.884z"
				/>
			<path d="M298.931,202.884c-5.428-1.78-11.271,1.175-13.052,6.603l-10.026,30.556l-10.025-30.556
				c-1.393-4.247-5.358-7.119-9.827-7.119s-8.434,2.871-9.827,7.118l-10.026,30.556l-10.026-30.556
				c-1.78-5.428-7.626-8.383-13.052-6.603c-5.428,1.781-8.383,7.625-6.603,13.052l19.853,60.509
				c1.393,4.247,5.358,7.118,9.827,7.118s8.434-2.871,9.827-7.118L256,245.889l10.025,30.556c1.393,4.247,5.358,7.119,9.827,7.119
				s8.434-2.871,9.827-7.118l19.853-60.509C307.316,210.51,304.359,204.666,298.931,202.884z"/>
			<path d="M419.719,202.884c-5.427-1.78-11.271,1.175-13.052,6.603l-10.025,30.556l-10.026-30.556
				c-1.393-4.247-5.358-7.118-9.827-7.118s-8.434,2.871-9.827,7.118l-10.026,30.556l-10.026-30.556
				c-1.781-5.428-7.624-8.383-13.052-6.603c-5.428,1.781-8.384,7.625-6.603,13.052l19.853,60.509
				c1.393,4.247,5.358,7.118,9.827,7.118s8.434-2.871,9.827-7.118l10.026-30.556l10.026,30.556c1.393,4.247,5.358,7.118,9.827,7.118
				s8.434-2.871,9.827-7.119l19.853-60.509C428.102,210.51,425.146,204.666,419.719,202.884z"/>
		</g>
	</g>
</g>
<g>
</g>
<g>
</g>
<g>
</g>
<g>
</g>
<g>
</g>
<g>
</g>
<g>
</g>
<g>
</g>
<g>
</g>
<g>
</g>
<g>
</g>
<g>
</g>
<g>
</g>
<g>
</g>
<g>
</g>
</svg>
